<svg xmlns="http://www.w3.org/2000/svg" version="1.0" viewBox="0 0 65 65"><path fill-opacity=".9" d="M10.4 5.5c-1.8 1.4-1.8 1.4.4.8C12 6 13 5.4 13 4.9c0-1.2-.3-1.1-2.6.6zm41.3-.4c.7.7 1.5 1 1.8.7.3-.3-.2-.9-1.2-1.2-1.4-.6-1.5-.5-.6.5zM5 11c-.6 1.1-.7 2-.2 2 .6 0 1.2-.9 1.5-2 .3-1.1.3-2 .1-2-.2 0-.8.9-1.4 2zm54.4 21.5c0 12.1.2 16.9.3 10.7.2-6.2.2-16.1 0-22-.1-5.9-.3-.8-.3 11.3zM4.6 52.3c.3 1 .9 1.5 1.2 1.2.3-.3 0-1.1-.7-1.8-1-.9-1.1-.8-.5.6zm51.8 4.9-1.9 2.3 2.3-1.9c2.1-1.8 2.7-2.6 1.9-2.6-.2 0-1.2 1-2.3 2.2zm-35.2 2.5c5.9.2 15.8.2 22 0 6.2-.1 1.4-.3-10.7-.3s-17.2.2-11.3.3z"/><path d="M13 4.9c0 .5-1.2 1.2-2.6 1.5-1.6.4-3 1.8-3.7 3.6-.6 1.7-1.5 3-1.9 3-.4 0-.8 8.2-.8 18.3 0 16.2.2 18.8 2 22.4 1 2.2 2.7 4.3 3.5 4.7.9.3 11.4.6 23.4.6C61.5 59 59 61.5 59 32.8c0-11.9-.3-22.4-.6-23.3C58 8.7 55.9 7 53.7 6c-3.6-1.8-6.2-2-22.4-2-10.1 0-18.3.4-18.3.9zm19 8.9c0 .4-.5 1.3-1.2 2-.9.9-.9 1.5 0 2.4 1.9 1.9 1.5 2.6-2.3 3.8-4.6 1.5-6.5 4.4-6.5 9.8 0 5.8 2.3 10.1 6 10.8 1.6.4 3.8 1.6 4.9 2.8l2.1 2.2-2.4 2.3c-2.1 2-2.8 2.1-6.5 1.1C18.3 48.9 13 41.1 13 32c.1-4.4 2.2-10.5 4.7-13.2C21 15 32 11.2 32 13.8zm9.5 1.2c12.5 6.1 13.8 24.6 2.3 33.3-4.2 3.2-9.8 4.5-9.8 2.3 0-.8.5-1.8 1.1-2.2.8-.4.8-.9 0-1.7-1.6-1.6-1.4-3.7.3-3.7.8 0 2.7-1 4.1-2.3 5.3-4.5 4-16.8-1.9-18.3-1.3-.3-3.4-1.7-4.7-3-2.2-2.3-2.2-2.4-.4-4.4 2.3-2.5 3.8-2.5 9 0z"/><path fill-opacity=".8" d="M6.9 7.7c-1.3 1.6-1.2 1.7.4.4C8.2 7.4 9 6.6 9 6.4c0-.8-.8-.3-2.1 1.3zM60.4 32c0 10.7.2 15.1.3 9.7.2-5.3.2-14.1 0-19.5-.1-5.3-.3-.9-.3 9.8zM22.2 60.7c5.4.2 14.2.2 19.6 0 5.3-.1.9-.3-9.8-.3-10.7 0-15.1.2-9.8.3z"/><path fill="#400040" d="M30.7 14.3c-.3.8-.2 2 .3 2.6.5.9.8.4.8-1.3 0-2.9-.3-3.2-1.1-1.3zm-12.3 3.9-1.9 2.3 2.3-1.9c2.1-1.8 2.7-2.6 1.9-2.6-.2 0-1.2 1-2.3 2.2zm2.8 14.3c0 1.6.2 2.2.5 1.2.2-.9.2-2.3 0-3-.3-.6-.5.1-.5 1.8zm29.9.1c0 1.1.3 1.4.6.6.3-.7.2-1.6-.1-1.9-.3-.4-.6.2-.5 1.3zM17 45.4c0 .2.8 1 1.8 1.7 1.5 1.3 1.6 1.2.3-.4S17 44.6 17 45.4zm17.4 2.1c0 1.3.3 2.2.7 1.9.8-.4.6-3-.2-3.8-.3-.3-.5.5-.5 1.9zm-5.6 4.2c.7.3 1.6.2 1.9-.1.4-.3-.2-.6-1.3-.5-1.1 0-1.4.3-.6.6zm6 0c.7.3 1.6.2 1.9-.1.4-.3-.2-.6-1.3-.5-1.1 0-1.4.3-.6.6z"/><path fill="#404040" d="M28.8 13.7c.7.3 1.6.2 1.9-.1.4-.3-.2-.6-1.3-.5-1.1 0-1.4.3-.6.6zm4.1 1c-1.2 1.6-1.2 1.7.1.7.8-.6 2.2-1.4 3-1.7 1.3-.5 1.2-.6-.1-.6-.9-.1-2.3.7-3 1.6zm-2.1 5.1c.4 1.1.7 1.2 1 .4.3-1 .7-1 2 0 1.4 1 1.5 1 .5-.2-1.8-2-4.3-2.2-3.5-.2zM13.2 32.5c0 1.6.2 2.2.5 1.2.2-.9.2-2.3 0-3-.3-.6-.5.1-.5 1.8zm30 0c0 1.6.2 2.2.5 1.2.2-.9.2-2.3 0-3-.3-.6-.5.1-.5 1.8zM34.5 44c-.3.6.1.7.9.4 1.8-.7 2.1-1.4.7-1.4-.6 0-1.3.4-1.6 1zm10.9 2.2-1.9 2.3 2.3-1.9c2.1-1.8 2.7-2.6 1.9-2.6-.2 0-1.2 1-2.3 2.2z"/><path fill="#804080" d="M31 44.4c0 .2.8 1 1.8 1.7 1.5 1.3 1.6 1.2.3-.4S31 43.6 31 44.4zm.9 5.3c-1.3 1.6-1.2 1.7.4.4.9-.7 1.7-1.5 1.7-1.7 0-.8-.8-.3-2.1 1.3z"/><path fill="gray" d="m18.4 19.2-1.9 2.3 2.3-1.9c2.1-1.8 2.7-2.6 1.9-2.6-.2 0-1.2 1-2.3 2.2zm15.1-.2c1 1.1 2 2 2.3 2 .3 0-.3-.9-1.3-2s-2-2-2.3-2c-.3 0 .3.9 1.3 2z"/><g fill="#BFBFBF" stroke-width="0"><path d="M24.5 15.4c-8.9 4-12.9 15.7-8.6 25.2 2.1 4.6 5.7 7.8 10.8 9.5 3 1 3.7.9 5.2-.6 1.5-1.6 1.5-1.6-.5-.4-1.8 1-2.9.9-7-1.2-8.4-4.1-11.7-14.3-7.5-23.4 1-2.2 2.7-4.8 3.7-5.7 2.4-2.1 7.4-4 7.4-2.9 0 .5.2 1.5.5 2.3.3.8-.6 1.8-2.4 2.5-4.4 1.6-6.5 6.6-6.2 14.5.1 3.6 4.2 8.1 9 10 5.5 2.2 5.2 1.2-.3-1.2-5.6-2.4-7.8-5.6-7.8-11.6 0-5.2 2.2-9.1 6.3-11.1 1.7-.9 2.4-2.1 2.4-4.3 0-3.3-.6-3.5-5-1.6zm8.8-.3c-1 1-.8 1.8.9 3.6 1.2 1.3 2.7 2.3 3.3 2.3 2.6 0 5.8 5 6.3 9.8.5 6-1.7 10.8-5.9 12.6-2.3 1-2.6 1.5-1.7 2.4 1 1 1 1.7 0 3.3-1.2 1.9-1.1 2 1 1.4 4.4-1.3 9.5-5.3 11.1-8.8 2.7-5.6 2-6.6-.8-1.1-1.3 2.7-3.8 5.7-5.4 6.7-3.6 2.1-3.8 2.1-4.4-.3-.3-1.3.3-2.4 1.9-3.5 6.2-4 7.2-15 1.9-20.5-1.6-1.7-3.4-3-4-3-.7 0-2-.9-2.9-1.9-1.7-1.8-1.6-1.9.3-2.6C39.4 14.1 47 20.3 49 26.9c.6 1.7.9 2 .9.8.3-6.8-12.6-16.6-16.6-12.6z"/><path d="M50.2 32.5c0 1.6.2 2.2.5 1.2.2-.9.2-2.3 0-3-.3-.6-.5.1-.5 1.8z"/></g><path fill="#FFF" d="M24.5 16.4c-7.9 3.4-11.7 14.5-8 23.3 2.2 5.1 4 7 9.2 8.9 4 1.6 4.6 1.6 6 .1 1.4-1.4 1.1-1.7-3.3-3.9-6.2-3-8.6-6.3-8.6-12s2.4-10.5 6-12c1.5-.7 2.8-1.3 3-1.4.1 0-.1-1-.5-2.2-.7-1.9-1.1-1.9-3.8-.8zm9.7-.7c-1 .4-.9.9.4 2.4.9 1 2.2 1.9 2.9 1.9.6 0 2.4 1.3 4 3 5.3 5.5 4.3 16.5-1.9 20.5-1.6 1.1-2.2 2.2-1.9 3.5.6 2.4.8 2.4 4.4.3 1.7-1 4.1-4 5.6-7.1 2.1-4.3 2.4-6.1 1.9-9.9-.8-6.1-4-10.9-8.7-13.3-4-2.1-4.5-2.2-6.7-1.3z"/></svg>