<?xml version="1.0" encoding="UTF-8"?>
<!DOCTYPE svg PUBLIC "-//W3C//DTD SVG 1.1//EN" "http://www.w3.org/Graphics/SVG/1.1/DTD/svg11.dtd">
<svg xmlns="http://www.w3.org/2000/svg" version="1.1" width="300px" height="300px" style="shape-rendering:geometricPrecision; text-rendering:geometricPrecision; image-rendering:optimizeQuality; fill-rule:evenodd; clip-rule:evenodd" xmlns:xlink="http://www.w3.org/1999/xlink">
<g><path style="opacity:0.914" fill="#2465a5" d="M 147.5,-0.5 C 148.5,-0.5 149.5,-0.5 150.5,-0.5C 150.334,5.17645 150.501,10.8431 151,16.5C 153.222,12.6119 156.388,9.77857 160.5,8C 169.727,6.55103 178.894,5.05103 188,3.5C 188.5,4 189,4.5 189.5,5C 187.813,10.1093 186.646,15.2759 186,20.5C 190.186,17.0752 195.02,15.4085 200.5,15.5C 208.788,17.0908 217.122,18.4242 225.5,19.5C 223.421,23.9926 221.088,28.326 218.5,32.5C 223.045,32.542 227.712,32.7087 232.5,33C 240.388,36.7778 248.388,40.2778 256.5,43.5C 253.016,47.4849 249.349,51.3182 245.5,55C 250.346,55.1886 255.012,56.1886 259.5,58C 266.356,63.6907 273.356,69.1907 280.5,74.5C 275.634,77.8642 270.634,81.0309 265.5,84C 272.681,84.6741 278.515,87.8408 283,93.5C 286.173,99.181 289.839,104.514 294,109.5C 294.688,110.332 294.521,110.998 293.5,111.5C 291.386,112.034 289.552,113.034 288,114.5C 287.667,114.167 287.333,113.833 287,113.5C 284.649,114.714 282.149,115.548 279.5,116C 283.579,118.075 287.079,120.908 290,124.5C 293.026,132.331 296.193,139.998 299.5,147.5C 299.5,148.5 299.5,149.5 299.5,150.5C 294.156,150.334 288.823,150.501 283.5,151C 287.928,154.092 290.761,158.259 292,163.5C 292.711,171.788 293.878,179.955 295.5,188C 289.763,187.717 284.096,187.05 278.5,186C 281.948,190.008 283.614,194.675 283.5,200C 281.784,208.08 280.784,216.247 280.5,224.5C 275.633,223.069 270.967,221.069 266.5,218.5C 266.458,223.045 266.291,227.712 266,232.5C 262.262,239.97 259.095,247.637 256.5,255.5C 255.448,255.649 254.448,255.483 253.5,255C 250.333,251.833 247.167,248.667 244,245.5C 243.811,250.346 242.811,255.012 241,259.5C 235.713,265.909 230.546,272.409 225.5,279C 224.833,279.667 224.167,279.667 223.5,279C 220.693,275.045 217.859,270.545 215,265.5C 213.821,275.605 208.821,282.272 200,285.5C 196.225,287.974 192.725,290.807 189.5,294C 188.256,294.456 187.423,293.956 187,292.5C 185.465,288.227 184.131,283.894 183,279.5C 180.55,284.284 177.05,288.117 172.5,291C 165.089,293.088 158.089,295.922 151.5,299.5C 150.5,299.5 149.5,299.5 148.5,299.5C 148.666,293.824 148.499,288.157 148,282.5C 145.778,286.388 142.612,289.221 138.5,291C 128.868,292.603 119.201,293.603 109.5,294C 111.187,288.891 112.354,283.724 113,278.5C 108.862,281.547 104.195,283.213 99,283.5C 91.7905,282.406 84.6238,281.073 77.5,279.5C 75.8791,280.705 74.5458,280.539 73.5,279C 75.9138,274.171 78.5804,269.504 81.5,265C 78.4563,265.665 75.2896,266.165 72,266.5C 68.7928,266.259 65.6262,265.759 62.5,265C 56.2088,261.021 49.5421,257.854 42.5,255.5C 46.3455,251.155 50.3455,246.988 54.5,243C 48.1113,243.906 42.1113,242.572 36.5,239C 30.9738,233.972 25.3072,229.138 19.5,224.5C 23.733,220.78 28.3997,217.613 33.5,215C 28.6897,214.509 24.3563,212.842 20.5,210C 15.2119,203.256 10.0452,196.423 5,189.5C 4.54392,188.256 5.04392,187.423 6.5,187C 10.7728,185.465 15.1062,184.131 19.5,183C 15.5422,180.766 12.0422,177.933 9,174.5C 6.09753,166.601 2.93087,158.934 -0.5,151.5C -0.5,150.5 -0.5,149.5 -0.5,148.5C 5.17645,148.666 10.8431,148.499 16.5,148C 12.6119,145.778 9.77857,142.612 8,138.5C 6.55103,129.273 5.05103,120.106 3.5,111C 4,110.5 4.5,110 5,109.5C 10.1093,111.187 15.2759,112.354 20.5,113C 17.0752,108.814 15.4085,103.98 15.5,98.5C 17.0908,90.2118 18.4242,81.8784 19.5,73.5C 23.9926,75.579 28.326,77.9123 32.5,80.5C 32.055,74.5498 32.555,68.5498 34,62.5C 37.9556,56.2537 41.1222,49.587 43.5,42.5C 47.8449,46.3455 52.0115,50.3455 56,54.5C 55.2331,49.4138 55.8998,44.4138 58,39.5C 63.1667,33 68.3333,26.5 73.5,20C 74.4491,19.3828 75.2825,19.5494 76,20.5C 78.9175,24.6661 81.5841,28.9994 84,33.5C 84.2565,29.6233 85.2565,25.9567 87,22.5C 94.2139,16.2846 101.714,10.4513 109.5,5C 110.744,4.54392 111.577,5.04392 112,6.5C 113.535,10.7728 114.869,15.1062 116,19.5C 118.075,15.421 120.908,11.921 124.5,9C 132.388,6.10043 140.055,2.93377 147.5,-0.5 Z"/></g>
<g><path style="opacity:1" fill="#b9d8ef" d="M 195.5,32.5 C 188.834,32.7217 182.334,32.7217 176,32.5C 175.167,32.6667 174.333,32.8333 173.5,33C 174.737,33.2321 175.737,33.7321 176.5,34.5C 174.738,34.6427 173.071,34.3094 171.5,33.5C 170.824,34.6016 170.158,35.6016 169.5,36.5C 169.762,35.0222 169.429,33.6888 168.5,32.5C 165.442,33.7026 162.109,33.7026 158.5,32.5C 158.813,36.0419 158.479,39.3752 157.5,42.5C 157.823,38.774 157.489,35.1073 156.5,31.5C 155.682,34.1071 155.182,36.7737 155,39.5C 153.815,37.6228 152.815,35.6228 152,33.5C 150.89,31.9632 149.39,31.2965 147.5,31.5C 147.5,35.5 147.5,39.5 147.5,43.5C 146.676,39.6877 146.176,35.6877 146,31.5C 145.824,35.6877 145.324,39.6877 144.5,43.5C 143.833,27.5 143.167,27.5 142.5,43.5C 141.71,42.3915 141.21,41.0581 141,39.5C 137.295,41.8174 133.295,42.1508 129,40.5C 128.5,40.8333 128,41.1667 127.5,41.5C 129.167,42.1667 130.833,42.8333 132.5,43.5C 132.376,44.1067 132.043,44.44 131.5,44.5C 130.081,43.5489 128.415,43.2155 126.5,43.5C 126.5,42.1667 126.5,40.8333 126.5,39.5C 131.833,39.1667 131.833,38.8333 126.5,38.5C 126.5,37.5 126.5,36.5 126.5,35.5C 127.978,35.762 129.311,35.4287 130.5,34.5C 128.257,33.5258 125.924,33.1924 123.5,33.5C 124.051,36.8067 124.384,40.1401 124.5,43.5C 123.833,44.5 123.167,45.5 122.5,46.5C 122.089,44.228 120.922,43.8947 119,45.5C 115.795,44.2018 114.795,41.8684 116,38.5C 117.509,37.9103 119.009,37.2436 120.5,36.5C 118.051,35.0903 115.884,35.4237 114,37.5C 113.503,39.8098 113.337,42.1432 113.5,44.5C 112.833,44.5 112.5,44.8333 112.5,45.5C 111.35,43.3965 110.017,41.3965 108.5,39.5C 108.167,40 107.833,40.5 107.5,41C 110.302,47.8766 109.302,48.2099 104.5,42C 102.537,41.1558 101.204,41.6558 100.5,43.5C 99.5255,42.365 98.3588,41.365 97,40.5C 93.5343,41.7167 90.0343,41.7167 86.5,40.5C 115.811,23.1184 147.144,18.6184 180.5,27C 185.703,28.5645 190.703,30.3978 195.5,32.5 Z"/></g>
<g><path style="opacity:1" fill="#1e539e" d="M 144.5,43.5 C 143.833,43.5 143.167,43.5 142.5,43.5C 143.167,27.5 143.833,27.5 144.5,43.5 Z"/></g>
<g><path style="opacity:1" fill="#2c5ba3" d="M 131.5,44.5 C 129.801,44.6204 128.135,44.9537 126.5,45.5C 125.287,45.2528 124.62,44.5862 124.5,43.5C 124.384,40.1401 124.051,36.8067 123.5,33.5C 125.924,33.1924 128.257,33.5258 130.5,34.5C 129.311,35.4287 127.978,35.762 126.5,35.5C 126.5,36.5 126.5,37.5 126.5,38.5C 131.833,38.8333 131.833,39.1667 126.5,39.5C 126.5,40.8333 126.5,42.1667 126.5,43.5C 128.415,43.2155 130.081,43.5489 131.5,44.5 Z"/></g>
<g><path style="opacity:1" fill="#2a5ba3" d="M 122.5,46.5 C 118.804,48.2798 115.804,47.6131 113.5,44.5C 113.337,42.1432 113.503,39.8098 114,37.5C 115.884,35.4237 118.051,35.0903 120.5,36.5C 119.009,37.2436 117.509,37.9103 116,38.5C 114.795,41.8684 115.795,44.2018 119,45.5C 120.922,43.8947 122.089,44.228 122.5,46.5 Z"/></g>
<g><path style="opacity:1" fill="#2d5ca4" d="M 112.5,45.5 C 112.5,47.1667 112.5,48.8333 112.5,50.5C 111.448,50.6495 110.448,50.4828 109.5,50C 103.127,42.381 101.793,42.7143 105.5,51C 105.167,51.5 104.833,52 104.5,52.5C 102.779,49.6717 101.446,46.6717 100.5,43.5C 101.204,41.6558 102.537,41.1558 104.5,42C 109.302,48.2099 110.302,47.8766 107.5,41C 107.833,40.5 108.167,40 108.5,39.5C 110.017,41.3965 111.35,43.3965 112.5,45.5 Z"/></g>
<g><path style="opacity:1" fill="#c7e0f3" d="M 147.5,43.5 C 149.22,41.3419 150.053,38.6752 150,35.5C 151.626,37.9171 153.126,40.4171 154.5,43C 155.749,43.7401 156.749,43.5735 157.5,42.5C 158.479,39.3752 158.813,36.0419 158.5,32.5C 162.109,33.7026 165.442,33.7026 168.5,32.5C 169.429,33.6888 169.762,35.0222 169.5,36.5C 169.037,39.4824 168.704,42.4824 168.5,45.5C 170.591,45.3184 172.591,45.6518 174.5,46.5C 175.462,44.1167 174.462,43.1167 171.5,43.5C 171.5,42.5 171.5,41.5 171.5,40.5C 172.978,40.762 174.311,40.4287 175.5,39.5C 174.675,38.6143 173.675,38.281 172.5,38.5C 172.422,35.5133 173.589,34.8466 176,36.5C 177.718,35.9689 177.885,35.3023 176.5,34.5C 175.737,33.7321 174.737,33.2321 173.5,33C 174.333,32.8333 175.167,32.6667 176,32.5C 182.334,32.7217 188.834,32.7217 195.5,32.5C 211.29,37.9838 224.957,46.6505 236.5,58.5C 233.39,59.0885 230.39,59.7552 227.5,60.5C 225.606,59.9524 223.94,58.9524 222.5,57.5C 222.167,57.8333 221.833,58.1667 221.5,58.5C 222.167,59.1667 222.833,59.8333 223.5,60.5C 221.815,62.5707 220.148,64.5707 218.5,66.5C 218.167,62.5 217.833,62.5 217.5,66.5C 216.209,66.7373 215.209,66.404 214.5,65.5C 215.497,65.5299 216.164,65.0299 216.5,64C 217.118,61.0255 218.118,58.1922 219.5,55.5C 217.824,53.0788 215.824,52.9121 213.5,55C 211.237,56.617 209.237,58.4503 207.5,60.5C 206.29,60.0679 205.29,59.4013 204.5,58.5C 205.552,58.6495 206.552,58.4828 207.5,58C 203.81,57.3096 202.643,55.1429 204,51.5C 206.16,48.9194 208.326,48.9194 210.5,51.5C 211.594,50.132 211.26,48.9653 209.5,48C 202.717,46.7824 199.884,49.6157 201,56.5C 201.717,57.0442 202.217,57.7109 202.5,58.5C 195.067,59.1355 187.734,59.8022 180.5,60.5C 175.351,60.6511 173.018,63.3178 173.5,68.5C 172.833,67.8333 172.167,67.1667 171.5,66.5C 173.172,63.3751 172.838,60.5417 170.5,58C 166.508,56.8228 164.842,58.3228 165.5,62.5C 164.143,60.7065 162.977,58.7065 162,56.5C 161.79,58.0581 161.29,59.3915 160.5,60.5C 160.762,59.0222 160.429,57.6888 159.5,56.5C 158.831,58.6309 158.165,60.6309 157.5,62.5C 157.657,61.1266 157.49,59.7932 157,58.5C 154.281,59.4438 151.448,59.7771 148.5,59.5C 143.306,59.0583 143.306,58.0583 148.5,56.5C 146.604,55.5344 144.604,55.2011 142.5,55.5C 142.5,58.8333 142.5,62.1667 142.5,65.5C 144.833,65.5 147.167,65.5 149.5,65.5C 146.713,66.4767 143.713,66.81 140.5,66.5C 140.089,64.228 138.922,63.8947 137,65.5C 133.795,64.2018 132.795,61.8684 134,58.5C 135.734,57.7511 137.567,57.2511 139.5,57C 132.256,55.7459 129.923,58.5793 132.5,65.5C 131.733,66.172 131.066,67.0053 130.5,68C 129.251,68.7401 128.251,68.5735 127.5,67.5C 128.497,67.5299 129.164,67.0299 129.5,66C 129.057,62.9209 128.057,60.0876 126.5,57.5C 125.949,59.4132 125.782,61.4132 126,63.5C 124.027,62.3601 122.193,61.0267 120.5,59.5C 119.702,59.9569 119.369,60.6236 119.5,61.5C 111.101,59.5751 102.434,58.9085 93.5,59.5C 93.8039,58.8501 94.1373,58.1835 94.5,57.5C 92.9793,57.1203 91.3126,56.9536 89.5,57C 87.9431,54.7045 86.2764,52.5378 84.5,50.5C 84.1667,51 83.8333,51.5 83.5,52C 84.7865,54.0712 85.9532,56.2379 87,58.5C 87.8159,59.8228 88.9826,60.4894 90.5,60.5C 89.5,61.5 88.5,62.5 87.5,63.5C 87.6309,62.6236 87.2975,61.9569 86.5,61.5C 85.549,62.3256 84.549,62.4922 83.5,62C 75.9574,53.2132 75.1241,53.7132 81,63.5C 81.8159,64.8228 82.9826,65.4894 84.5,65.5C 83.0736,66.3412 81.7403,67.3412 80.5,68.5C 80.6309,67.6236 80.2975,66.9569 79.5,66.5C 76.1819,69.3588 75.1819,68.6922 76.5,64.5C 71.4174,64.921 70.7507,63.421 74.5,60C 73.0715,59.4209 71.7382,59.5876 70.5,60.5C 67.5565,59.1732 64.5565,58.8399 61.5,59.5C 68.9265,51.9556 77.2598,45.6223 86.5,40.5C 90.0343,41.7167 93.5343,41.7167 97,40.5C 98.3588,41.365 99.5255,42.365 100.5,43.5C 101.446,46.6717 102.779,49.6717 104.5,52.5C 104.833,52 105.167,51.5 105.5,51C 101.793,42.7143 103.127,42.381 109.5,50C 110.448,50.4828 111.448,50.6495 112.5,50.5C 112.5,48.8333 112.5,47.1667 112.5,45.5C 112.5,44.8333 112.833,44.5 113.5,44.5C 115.804,47.6131 118.804,48.2798 122.5,46.5C 123.167,45.5 123.833,44.5 124.5,43.5C 124.62,44.5862 125.287,45.2528 126.5,45.5C 128.135,44.9537 129.801,44.6204 131.5,44.5C 132.043,44.44 132.376,44.1067 132.5,43.5C 130.833,42.8333 129.167,42.1667 127.5,41.5C 128,41.1667 128.5,40.8333 129,40.5C 133.295,42.1508 137.295,41.8174 141,39.5C 141.21,41.0581 141.71,42.3915 142.5,43.5C 143.167,43.5 143.833,43.5 144.5,43.5C 145.324,39.6877 145.824,35.6877 146,31.5C 146.176,35.6877 146.676,39.6877 147.5,43.5 Z"/></g>
<g><path style="opacity:1" fill="#315fa5" d="M 95.5,43.5 C 96.3764,43.3691 97.0431,43.7025 97.5,44.5C 96.5089,45.6652 95.5089,46.8319 94.5,48C 94.8333,48.5 95.1667,49 95.5,49.5C 96.6086,48.4104 97.6086,48.4104 98.5,49.5C 97.1468,50.5237 96.4802,51.857 96.5,53.5C 103,52.5553 103.167,53.5553 97,56.5C 94.1595,54.159 92.3262,51.159 91.5,47.5C 92.437,45.712 93.7703,44.3786 95.5,43.5 Z"/></g>
<g><path style="opacity:1" fill="#315ea5" d="M 180.5,36.5 C 188.957,37.437 190.624,41.2703 185.5,48C 183.5,48.6667 181.5,48.6667 179.5,48C 178.484,47.4806 177.818,46.6473 177.5,45.5C 178.31,42.4035 179.31,39.4035 180.5,36.5 Z"/></g>
<g><path style="opacity:1" fill="#b8d5ec" d="M 182.5,38.5 C 186.906,39.8942 187.573,42.3942 184.5,46C 183.207,46.49 181.873,46.6567 180.5,46.5C 180.858,43.7334 181.525,41.0667 182.5,38.5 Z"/></g>
<g><path style="opacity:1" fill="#3662a8" d="M 176.5,34.5 C 177.885,35.3023 177.718,35.9689 176,36.5C 173.589,34.8466 172.422,35.5133 172.5,38.5C 173.675,38.281 174.675,38.6143 175.5,39.5C 174.311,40.4287 172.978,40.762 171.5,40.5C 171.5,41.5 171.5,42.5 171.5,43.5C 174.462,43.1167 175.462,44.1167 174.5,46.5C 172.591,45.6518 170.591,45.3184 168.5,45.5C 168.704,42.4824 169.037,39.4824 169.5,36.5C 170.158,35.6016 170.824,34.6016 171.5,33.5C 173.071,34.3094 174.738,34.6427 176.5,34.5 Z"/></g>
<g><path style="opacity:1" fill="#2759a2" d="M 157.5,42.5 C 156.749,43.5735 155.749,43.7401 154.5,43C 153.126,40.4171 151.626,37.9171 150,35.5C 150.053,38.6752 149.22,41.3419 147.5,43.5C 147.5,39.5 147.5,35.5 147.5,31.5C 149.39,31.2965 150.89,31.9632 152,33.5C 152.815,35.6228 153.815,37.6228 155,39.5C 155.182,36.7737 155.682,34.1071 156.5,31.5C 157.489,35.1073 157.823,38.774 157.5,42.5 Z"/></g>
<g><path style="opacity:1" fill="#2d5ca3" d="M 192.5,40.5 C 193.497,40.4701 194.164,40.9701 194.5,42C 192.922,44.9684 192.255,48.1351 192.5,51.5C 193.833,51.5 195.167,51.5 196.5,51.5C 196.78,48.2735 198.113,45.6068 200.5,43.5C 200.833,44 201.167,44.5 201.5,45C 200.262,47.545 198.929,50.045 197.5,52.5C 193.308,54.3205 190.641,52.9871 189.5,48.5C 190.51,45.8172 191.51,43.1505 192.5,40.5 Z"/></g>
<g><path style="opacity:1" fill="#315fa5" d="M 204.5,58.5 C 203.833,58.5 203.167,58.5 202.5,58.5C 202.217,57.7109 201.717,57.0442 201,56.5C 199.884,49.6157 202.717,46.7824 209.5,48C 211.26,48.9653 211.594,50.132 210.5,51.5C 208.326,48.9194 206.16,48.9194 204,51.5C 202.643,55.1429 203.81,57.3096 207.5,58C 206.552,58.4828 205.552,58.6495 204.5,58.5 Z"/></g>
<g><path style="opacity:1" fill="#3461a7" d="M 93.5,59.5 C 92.391,59.5569 91.391,59.8902 90.5,60.5C 88.9826,60.4894 87.8159,59.8228 87,58.5C 85.9532,56.2379 84.7865,54.0712 83.5,52C 83.8333,51.5 84.1667,51 84.5,50.5C 86.2764,52.5378 87.9431,54.7045 89.5,57C 91.3126,56.9536 92.9793,57.1203 94.5,57.5C 94.1373,58.1835 93.8039,58.8501 93.5,59.5 Z"/></g>
<g><path style="opacity:1" fill="#d5eaf7" d="M 165.5,62.5 C 166.347,63.9663 167.68,64.7996 169.5,65C 167.807,66.3475 166.14,66.8475 164.5,66.5C 166.859,67.7143 169.192,67.7143 171.5,66.5C 172.167,67.1667 172.833,67.8333 173.5,68.5C 178.711,71.9945 180.878,70.6611 180,64.5C 179.25,63.8742 178.416,63.3742 177.5,63C 179.167,62.6667 180.833,62.3333 182.5,62C 181.956,61.2828 181.289,60.7828 180.5,60.5C 187.734,59.8022 195.067,59.1355 202.5,58.5C 203.167,58.5 203.833,58.5 204.5,58.5C 205.29,59.4013 206.29,60.0679 207.5,60.5C 209.343,60.5403 211.343,60.8736 213.5,61.5C 214.429,62.6888 214.762,64.0222 214.5,65.5C 215.209,66.404 216.209,66.7373 217.5,66.5C 217.833,62.5 218.167,62.5 218.5,66.5C 217.105,67.6477 217.272,68.6477 219,69.5C 221.35,67.3171 223.517,64.9837 225.5,62.5C 228.202,63.7978 228.869,63.1312 227.5,60.5C 230.39,59.7552 233.39,59.0885 236.5,58.5C 266.189,86.7154 279.022,121.382 275,162.5C 273.606,171.062 271.773,179.395 269.5,187.5C 261.661,180.826 254.661,173.326 248.5,165C 236.596,158.881 224.596,153.048 212.5,147.5C 212.829,141.794 212.495,136.128 211.5,130.5C 210.893,130.624 210.56,130.957 210.5,131.5C 209.209,131.737 208.209,131.404 207.5,130.5C 222.543,122.273 229.043,109.606 227,92.5C 223.145,86.7904 219.812,80.7904 217,74.5C 215.936,75.9441 215.436,77.6107 215.5,79.5C 216.296,84.0528 217.796,88.3862 220,92.5C 221.076,98.6877 219.076,103.688 214,107.5C 212.725,109.717 211.725,112.051 211,114.5C 210.333,112.833 210.333,111.167 211,109.5C 213.333,105.833 215.667,102.167 218,98.5C 218.972,94.6319 218.139,91.2985 215.5,88.5C 215.217,87.7109 214.717,87.0442 214,86.5C 213.503,88.8098 213.337,91.1432 213.5,93.5C 213.5,93.8333 213.5,94.1667 213.5,94.5C 212.833,94.5 212.5,94.1667 212.5,93.5C 213.226,87.6885 212.059,82.3552 209,77.5C 209.543,82.6972 207.71,86.6972 203.5,89.5C 201.72,88.0101 201.054,86.0101 201.5,83.5C 202.562,82.4246 202.562,81.4246 201.5,80.5C 198.312,83.5394 196.145,87.2061 195,91.5C 194.269,99.2622 194.769,106.929 196.5,114.5C 196.875,116.698 197.542,118.698 198.5,120.5C 198.279,124.868 199.946,128.202 203.5,130.5C 202.811,131.774 201.977,131.774 201,130.5C 200.358,134.491 199.858,138.491 199.5,142.5C 190.502,142.119 181.502,141.786 172.5,141.5C 172.662,139.473 172.495,137.473 172,135.5C 167.867,132.369 164.034,128.869 160.5,125C 153.5,124.333 146.5,124.333 139.5,125C 134.845,128.655 130.512,132.655 126.5,137C 127.233,138.766 127.567,140.599 127.5,142.5C 115.786,142.139 104.119,142.639 92.5,144C 77.832,151.604 63.1654,159.104 48.5,166.5C 43.5227,174.477 37.1894,181.143 29.5,186.5C 26.8076,178.038 25.1409,169.371 24.5,160.5C 24.3808,149.482 24.7141,138.482 25.5,127.5C 30.1794,100.801 42.1794,78.1343 61.5,59.5C 64.5565,58.8399 67.5565,59.1732 70.5,60.5C 70.0472,61.4584 69.3805,62.2917 68.5,63C 70.4606,65.9628 72.794,68.6294 75.5,71C 77.4354,70.9421 79.1021,70.1088 80.5,68.5C 81.7403,67.3412 83.0736,66.3412 84.5,65.5C 84.9731,64.0937 85.9731,63.427 87.5,63.5C 88.5,62.5 89.5,61.5 90.5,60.5C 91.391,59.8902 92.391,59.5569 93.5,59.5C 102.434,58.9085 111.101,59.5751 119.5,61.5C 120.485,64.0571 121.485,66.7237 122.5,69.5C 123.051,67.5868 123.218,65.5868 123,63.5C 124.371,65.0414 125.871,66.3747 127.5,67.5C 128.251,68.5735 129.251,68.7401 130.5,68C 131.066,67.0053 131.733,66.172 132.5,65.5C 135.054,66.388 137.721,66.7214 140.5,66.5C 143.713,66.81 146.713,66.4767 149.5,65.5C 148.081,64.5489 146.415,64.2155 144.5,64.5C 144.5,63.5 144.5,62.5 144.5,61.5C 146.483,61.8432 147.817,61.1765 148.5,59.5C 151.448,59.7771 154.281,59.4438 157,58.5C 157.49,59.7932 157.657,61.1266 157.5,62.5C 157.5,63.8333 157.5,65.1667 157.5,66.5C 158.5,66.5 159.5,66.5 160.5,66.5C 160.5,64.5 160.5,62.5 160.5,60.5C 161.29,59.3915 161.79,58.0581 162,56.5C 162.977,58.7065 164.143,60.7065 165.5,62.5 Z"/></g>
<g><path style="opacity:1" fill="#3866a9" d="M 148.5,59.5 C 147.817,61.1765 146.483,61.8432 144.5,61.5C 144.5,62.5 144.5,63.5 144.5,64.5C 146.415,64.2155 148.081,64.5489 149.5,65.5C 147.167,65.5 144.833,65.5 142.5,65.5C 142.5,62.1667 142.5,58.8333 142.5,55.5C 144.604,55.2011 146.604,55.5344 148.5,56.5C 143.306,58.0583 143.306,59.0583 148.5,59.5 Z"/></g>
<g><path style="opacity:1" fill="#2f5da4" d="M 214.5,65.5 C 214.762,64.0222 214.429,62.6888 213.5,61.5C 211.343,60.8736 209.343,60.5403 207.5,60.5C 209.237,58.4503 211.237,56.617 213.5,55C 215.824,52.9121 217.824,53.0788 219.5,55.5C 218.118,58.1922 217.118,61.0255 216.5,64C 216.164,65.0299 215.497,65.5299 214.5,65.5 Z"/></g>
<g><path style="opacity:1" fill="#bad4eb" d="M 214.5,56.5 C 217.012,57.2162 217.012,58.2162 214.5,59.5C 213.438,58.5754 213.438,57.5754 214.5,56.5 Z"/></g>
<g><path style="opacity:1" fill="#416bad" d="M 160.5,60.5 C 160.5,62.5 160.5,64.5 160.5,66.5C 159.5,66.5 158.5,66.5 157.5,66.5C 157.5,65.1667 157.5,63.8333 157.5,62.5C 158.165,60.6309 158.831,58.6309 159.5,56.5C 160.429,57.6888 160.762,59.0222 160.5,60.5 Z"/></g>
<g><path style="opacity:1" fill="#2b5ba3" d="M 87.5,63.5 C 85.9731,63.427 84.9731,64.0937 84.5,65.5C 82.9826,65.4894 81.8159,64.8228 81,63.5C 75.1241,53.7132 75.9574,53.2132 83.5,62C 84.549,62.4922 85.549,62.3256 86.5,61.5C 87.2975,61.9569 87.6309,62.6236 87.5,63.5 Z"/></g>
<g><path style="opacity:1" fill="#3b66aa" d="M 127.5,67.5 C 125.871,66.3747 124.371,65.0414 123,63.5C 123.218,65.5868 123.051,67.5868 122.5,69.5C 121.485,66.7237 120.485,64.0571 119.5,61.5C 119.369,60.6236 119.702,59.9569 120.5,59.5C 122.193,61.0267 124.027,62.3601 126,63.5C 125.782,61.4132 125.949,59.4132 126.5,57.5C 128.057,60.0876 129.057,62.9209 129.5,66C 129.164,67.0299 128.497,67.5299 127.5,67.5 Z"/></g>
<g><path style="opacity:1" fill="#3f6aac" d="M 180.5,60.5 C 181.289,60.7828 181.956,61.2828 182.5,62C 180.833,62.3333 179.167,62.6667 177.5,63C 178.416,63.3742 179.25,63.8742 180,64.5C 180.878,70.6611 178.711,71.9945 173.5,68.5C 173.018,63.3178 175.351,60.6511 180.5,60.5 Z"/></g>
<g><path style="opacity:1" fill="#3160a6" d="M 140.5,66.5 C 137.721,66.7214 135.054,66.388 132.5,65.5C 129.923,58.5793 132.256,55.7459 139.5,57C 137.567,57.2511 135.734,57.7511 134,58.5C 132.795,61.8684 133.795,64.2018 137,65.5C 138.922,63.8947 140.089,64.228 140.5,66.5 Z"/></g>
<g><path style="opacity:1" fill="#315ea5" d="M 80.5,68.5 C 79.1021,70.1088 77.4354,70.9421 75.5,71C 72.794,68.6294 70.4606,65.9628 68.5,63C 69.3805,62.2917 70.0472,61.4584 70.5,60.5C 71.7382,59.5876 73.0715,59.4209 74.5,60C 70.7507,63.421 71.4174,64.921 76.5,64.5C 75.1819,68.6922 76.1819,69.3588 79.5,66.5C 80.2975,66.9569 80.6309,67.6236 80.5,68.5 Z"/></g>
<g><path style="opacity:1" fill="#3a66aa" d="M 108.5,63.5 C 109.552,63.3505 110.552,63.5172 111.5,64C 110.09,64.3678 109.09,65.2011 108.5,66.5C 110.917,67.0722 113.084,68.0722 115,69.5C 115.635,72.5481 114.301,74.2148 111,74.5C 110.5,74.1667 110,73.8333 109.5,73.5C 110.325,72.6143 111.325,72.281 112.5,72.5C 112.5,71.5 112.5,70.5 112.5,69.5C 106.541,70.2222 105.207,68.2222 108.5,63.5 Z"/></g>
<g><path style="opacity:1" fill="#3e68ab" d="M 114.5,61.5 C 117.266,63.5096 118.933,66.3429 119.5,70C 119.167,70.5 118.833,71 118.5,71.5C 116.579,68.4037 115.246,65.0704 114.5,61.5 Z"/></g>
<g><path style="opacity:1" fill="#406bad" d="M 171.5,66.5 C 169.192,67.7143 166.859,67.7143 164.5,66.5C 166.14,66.8475 167.807,66.3475 169.5,65C 167.68,64.7996 166.347,63.9663 165.5,62.5C 164.842,58.3228 166.508,56.8228 170.5,58C 172.838,60.5417 173.172,63.3751 171.5,66.5 Z"/></g>
<g><path style="opacity:1" fill="#cbe2f4" d="M 167.5,59.5 C 168.5,59.5 169.5,59.5 170.5,59.5C 170.5,60.5 170.5,61.5 170.5,62.5C 169.5,62.5 168.5,62.5 167.5,62.5C 167.5,61.5 167.5,60.5 167.5,59.5 Z"/></g>
<g><path style="opacity:1" fill="#c7dff2" d="M 175.5,65.5 C 176.5,65.5 177.5,65.5 178.5,65.5C 177.5,70.8333 176.5,70.8333 175.5,65.5 Z"/></g>
<g><path style="opacity:1" fill="#2e5ca4" d="M 227.5,60.5 C 228.869,63.1312 228.202,63.7978 225.5,62.5C 223.517,64.9837 221.35,67.3171 219,69.5C 217.272,68.6477 217.105,67.6477 218.5,66.5C 220.148,64.5707 221.815,62.5707 223.5,60.5C 222.833,59.8333 222.167,59.1667 221.5,58.5C 221.833,58.1667 222.167,57.8333 222.5,57.5C 223.94,58.9524 225.606,59.9524 227.5,60.5 Z"/></g>
<g><path style="opacity:1" fill="#3d69ab" d="M 187.5,64.5 C 188.5,64.5 189.5,64.5 190.5,64.5C 190.616,68.6329 189.116,71.9663 186,74.5C 185.591,72.0087 184.424,70.0087 182.5,68.5C 184.419,67.3875 186.086,66.0542 187.5,64.5 Z"/></g>
<g><path style="opacity:1" fill="#b7d3ea" d="M 185.5,67.5 C 187.337,67.6395 187.67,68.3061 186.5,69.5C 185.702,69.0431 185.369,68.3764 185.5,67.5 Z"/></g>
<g><path style="opacity:1" fill="#2255a0" d="M 230.5,64.5 C 232.028,64.5173 232.528,65.184 232,66.5C 229.651,69.0168 227.151,71.3501 224.5,73.5C 223.479,72.9984 223.312,72.3317 224,71.5C 226.372,69.2968 228.539,66.9635 230.5,64.5 Z"/></g>
<g><path style="opacity:1" fill="#3b66a9" d="M 231.5,70.5 C 238.74,69.8896 241.24,72.8896 239,79.5C 234.939,83.7365 231.272,83.4032 228,78.5C 227.333,77.1667 227.333,75.8333 228,74.5C 229.376,73.2949 230.542,71.9616 231.5,70.5 Z"/></g>
<g><path style="opacity:1" fill="#d0e7f6" d="M 233.5,72.5 C 237.071,72.4077 238.238,74.0743 237,77.5C 234.464,80.3127 232.297,80.146 230.5,77C 231.315,75.3566 232.315,73.8566 233.5,72.5 Z"/></g>
<g><path style="opacity:1" fill="#325fa5" d="M 65.5,65.5 C 67.9337,66.354 67.767,67.354 65,68.5C 63.9273,72.0951 65.2606,74.0951 69,74.5C 70.8895,74.2148 72.2229,73.2148 73,71.5C 73.5111,76.1895 71.3445,78.0228 66.5,77C 61.6107,73.4322 61.2774,69.5988 65.5,65.5 Z"/></g>
<g><path style="opacity:1" fill="#2d5ca4" d="M 57.5,73.5 C 59.9531,76.8069 63.2864,79.1402 67.5,80.5C 65.8333,81.1667 64.1667,81.8333 62.5,82.5C 63.6446,83.891 63.6446,85.2243 62.5,86.5C 61.218,84.8208 60.218,82.9874 59.5,81C 51.5,80 51.5,79 59.5,78C 58.4178,76.6703 57.7512,75.1703 57.5,73.5 Z"/></g>
<g><path style="opacity:1" fill="#e32226" d="M 207.5,130.5 C 206.167,130.5 204.833,130.5 203.5,130.5C 199.946,128.202 198.279,124.868 198.5,120.5C 199.546,116.739 200.879,113.073 202.5,109.5C 207.318,105.348 210.985,100.348 213.5,94.5C 213.5,94.1667 213.5,93.8333 213.5,93.5C 214.167,91.8333 214.833,90.1667 215.5,88.5C 218.139,91.2985 218.972,94.6319 218,98.5C 215.667,102.167 213.333,105.833 211,109.5C 210.333,111.167 210.333,112.833 211,114.5C 211.725,112.051 212.725,109.717 214,107.5C 219.076,103.688 221.076,98.6877 220,92.5C 217.796,88.3862 216.296,84.0528 215.5,79.5C 215.436,77.6107 215.936,75.9441 217,74.5C 219.812,80.7904 223.145,86.7904 227,92.5C 229.043,109.606 222.543,122.273 207.5,130.5 Z"/></g>
<g><path style="opacity:1" fill="#e32528" d="M 212.5,93.5 C 209.601,99.0737 206.268,104.407 202.5,109.5C 201.115,110.574 199.949,111.907 199,113.5C 198.333,108.5 198.333,103.5 199,98.5C 199.656,95.0042 201.156,92.0042 203.5,89.5C 207.71,86.6972 209.543,82.6972 209,77.5C 212.059,82.3552 213.226,87.6885 212.5,93.5 Z"/></g>
<g><path style="opacity:1" fill="#3461a7" d="M 50.5,82.5 C 51.3764,82.3691 52.0431,82.7025 52.5,83.5C 51.1819,87.6922 52.1819,88.3588 55.5,85.5C 55.8333,85.8333 56.1667,86.1667 56.5,86.5C 55.7542,87.7362 55.4208,89.0695 55.5,90.5C 57.6382,90.297 59.3049,89.297 60.5,87.5C 60.8333,87.8333 61.1667,88.1667 61.5,88.5C 60.376,89.914 59.376,91.414 58.5,93C 55.0099,92.5085 51.8432,91.0085 49,88.5C 48.678,86.3111 49.178,84.3111 50.5,82.5 Z"/></g>
<g><path style="opacity:1" fill="#2d5ca4" d="M 242.5,79.5 C 244.252,79.4176 245.252,80.2509 245.5,82C 240.696,89.9447 241.696,91.1113 248.5,85.5C 248.833,85.8333 249.167,86.1667 249.5,86.5C 246.81,89.1846 243.81,91.5179 240.5,93.5C 239.5,93.1667 238.833,92.5 238.5,91.5C 239.706,88.9206 241.039,86.4206 242.5,84C 240.196,84.5733 238.029,85.74 236,87.5C 235.833,87 235.667,86.5 235.5,86C 237.874,83.8244 240.207,81.6577 242.5,79.5 Z"/></g>
<g><path style="opacity:1" fill="#de7f88" d="M 215.5,88.5 C 214.833,90.1667 214.167,91.8333 213.5,93.5C 213.337,91.1432 213.503,88.8098 214,86.5C 214.717,87.0442 215.217,87.7109 215.5,88.5 Z"/></g>
<g><path style="opacity:1" fill="#e23132" d="M 201.5,83.5 C 201.051,87.3187 199.885,90.9854 198,94.5C 197.828,101.346 197.328,108.013 196.5,114.5C 194.769,106.929 194.269,99.2622 195,91.5C 196.145,87.2061 198.312,83.5394 201.5,80.5C 202.562,81.4246 202.562,82.4246 201.5,83.5 Z"/></g>
<g><path style="opacity:1" fill="#175fa3" d="M 143.5,93.5 C 158.229,91.7308 164.729,98.0642 163,112.5C 157.984,121.762 150.817,123.928 141.5,119C 132.979,109.691 133.645,101.191 143.5,93.5 Z"/></g>
<g><path style="opacity:1" fill="#dcb4bd" d="M 212.5,93.5 C 212.5,94.1667 212.833,94.5 213.5,94.5C 210.985,100.348 207.318,105.348 202.5,109.5C 206.268,104.407 209.601,99.0737 212.5,93.5 Z"/></g>
<g><path style="opacity:1" fill="#de9199" d="M 201.5,83.5 C 201.054,86.0101 201.72,88.0101 203.5,89.5C 201.156,92.0042 199.656,95.0042 199,98.5C 198.333,103.5 198.333,108.5 199,113.5C 199.949,111.907 201.115,110.574 202.5,109.5C 200.879,113.073 199.546,116.739 198.5,120.5C 197.542,118.698 196.875,116.698 196.5,114.5C 197.328,108.013 197.828,101.346 198,94.5C 199.885,90.9854 201.051,87.3187 201.5,83.5 Z"/></g>
<g><path style="opacity:1" fill="#185fa3" d="M 172.5,141.5 C 166.247,141.883 160.247,143.383 154.5,146C 152.649,147.684 150.982,149.517 149.5,151.5C 148.478,149.145 146.812,147.478 144.5,146.5C 139.467,143.015 133.8,141.681 127.5,142.5C 127.567,140.599 127.233,138.766 126.5,137C 130.512,132.655 134.845,128.655 139.5,125C 146.5,124.333 153.5,124.333 160.5,125C 164.034,128.869 167.867,132.369 172,135.5C 172.495,137.473 172.662,139.473 172.5,141.5 Z"/></g>
<g><path style="opacity:1" fill="#ba9787" d="M 210.5,131.5 C 210.56,130.957 210.893,130.624 211.5,130.5C 212.495,136.128 212.829,141.794 212.5,147.5C 211.833,142.167 211.167,136.833 210.5,131.5 Z"/></g>
<g><path style="opacity:1" fill="#9bbddd" d="M 25.5,127.5 C 24.7141,138.482 24.3808,149.482 24.5,160.5C 23.8343,156.347 23.5009,152.013 23.5,147.5C 23.3459,140.602 24.0126,133.936 25.5,127.5 Z"/></g>
<g><path style="opacity:1" fill="#e9e8e9" d="M 172.5,141.5 C 181.502,141.786 190.502,142.119 199.5,142.5C 199.5,143.167 199.5,143.833 199.5,144.5C 197.703,144.935 195.703,144.935 193.5,144.5C 193.5,145.5 193.5,146.5 193.5,147.5C 195.199,147.34 196.866,147.506 198.5,148C 193.365,147.92 188.531,148.753 184,150.5C 181.894,148.709 179.394,148.042 176.5,148.5C 176.719,149.675 176.386,150.675 175.5,151.5C 173.591,152.348 171.591,152.682 169.5,152.5C 169.5,151.5 169.5,150.5 169.5,149.5C 163.244,150.463 157.578,152.796 152.5,156.5C 152.833,157.5 153.5,158.167 154.5,158.5C 158.13,154.901 162.463,153.401 167.5,154C 163.684,155.409 160.017,157.076 156.5,159C 154.981,160.351 153.648,161.851 152.5,163.5C 153,163.833 153.5,164.167 154,164.5C 159.9,159.499 166.4,156.832 173.5,156.5C 173.367,153.075 174.033,152.742 175.5,155.5C 170.426,158.051 165.093,160.551 159.5,163C 154.797,166.91 151.464,171.744 149.5,177.5C 147.042,170.039 142.375,164.373 135.5,160.5C 137.187,159.432 138.854,159.599 140.5,161C 142.676,162.677 144.676,164.511 146.5,166.5C 147.503,163.965 146.837,161.798 144.5,160C 146.283,158.933 146.783,157.433 146,155.5C 145,154.167 144,154.167 143,155.5C 142.505,153.01 141.005,151.51 138.5,151C 134.249,149.805 129.915,149.305 125.5,149.5C 125.33,150.822 125.663,151.989 126.5,153C 124.249,152.793 121.915,152.627 119.5,152.5C 119.5,153.5 119.5,154.5 119.5,155.5C 119.167,156.833 118.833,156.833 118.5,155.5C 118.5,154.167 118.5,152.833 118.5,151.5C 120.604,151.799 122.604,151.466 124.5,150.5C 124.291,149.914 123.957,149.414 123.5,149C 118.177,148.501 112.844,148.334 107.5,148.5C 107.167,152.5 106.833,152.5 106.5,148.5C 105.167,148.5 103.833,148.5 102.5,148.5C 102.649,149.552 102.483,150.552 102,151.5C 101.59,150.099 101.09,148.766 100.5,147.5C 101.167,147.5 101.833,147.5 102.5,147.5C 114.615,146.246 126.781,146.246 139,147.5C 139.249,148.624 139.749,149.624 140.5,150.5C 143.188,151.005 145.355,152.338 147,154.5C 147.5,154 148,153.5 148.5,153C 146.888,151.605 145.388,150.105 144,148.5C 141.922,149.943 141.089,149.276 141.5,146.5C 142.5,146.5 143.5,146.5 144.5,146.5C 146.812,147.478 148.478,149.145 149.5,151.5C 150.982,149.517 152.649,147.684 154.5,146C 160.247,143.383 166.247,141.883 172.5,141.5 Z"/></g>
<g><path style="opacity:1" fill="#b9b8b8" d="M 167.5,144.5 C 168.404,145.209 168.737,146.209 168.5,147.5C 163.203,148.154 158.203,149.821 153.5,152.5C 152.406,151.132 152.74,149.965 154.5,149C 158.453,146.403 162.62,145.569 167,146.5C 167.464,145.906 167.631,145.239 167.5,144.5 Z"/></g>
<g><path style="opacity:1" fill="#b8b7b7" d="M 175.5,143.5 C 178.98,144.76 182.48,144.76 186,143.5C 188.389,143.482 190.556,144.149 192.5,145.5C 186.872,146.495 181.206,146.829 175.5,146.5C 175.5,145.5 175.5,144.5 175.5,143.5 Z"/></g>
<g><path style="opacity:1" fill="#c8c6c6" d="M 199.5,144.5 C 199.058,148.154 198.724,151.821 198.5,155.5C 190.833,154.167 183.167,154.167 175.5,155.5C 174.033,152.742 173.367,153.075 173.5,156.5C 166.4,156.832 159.9,159.499 154,164.5C 153.5,164.167 153,163.833 152.5,163.5C 153.648,161.851 154.981,160.351 156.5,159C 160.017,157.076 163.684,155.409 167.5,154C 162.463,153.401 158.13,154.901 154.5,158.5C 153.5,158.167 152.833,157.5 152.5,156.5C 157.578,152.796 163.244,150.463 169.5,149.5C 169.5,150.5 169.5,151.5 169.5,152.5C 171.591,152.682 173.591,152.348 175.5,151.5C 176.386,150.675 176.719,149.675 176.5,148.5C 179.394,148.042 181.894,148.709 184,150.5C 188.531,148.753 193.365,147.92 198.5,148C 196.866,147.506 195.199,147.34 193.5,147.5C 193.5,146.5 193.5,145.5 193.5,144.5C 195.703,144.935 197.703,144.935 199.5,144.5 Z"/></g>
<g><path style="opacity:1" fill="#baaeab" d="M 212.5,150.5 C 213.5,150.5 214.5,150.5 215.5,150.5C 215.64,152.124 214.973,153.29 213.5,154C 216.789,154.882 220.123,155.548 223.5,156C 225.286,156.196 226.619,157.029 227.5,158.5C 226.833,158.833 226.167,159.167 225.5,159.5C 221.527,158.616 217.527,157.949 213.5,157.5C 213.5,163.167 213.5,168.833 213.5,174.5C 213.5,182.5 213.5,190.5 213.5,198.5C 212.504,182.675 212.17,166.675 212.5,150.5 Z"/></g>
<g><path style="opacity:1" fill="#dfdedc" d="M 212.5,147.5 C 224.596,153.048 236.596,158.881 248.5,165C 254.661,173.326 261.661,180.826 269.5,187.5C 254.453,186.759 240.12,183.259 226.5,177C 222.197,175.95 217.863,175.116 213.5,174.5C 213.5,168.833 213.5,163.167 213.5,157.5C 217.527,157.949 221.527,158.616 225.5,159.5C 226.167,159.167 226.833,158.833 227.5,158.5C 226.619,157.029 225.286,156.196 223.5,156C 220.123,155.548 216.789,154.882 213.5,154C 214.973,153.29 215.64,152.124 215.5,150.5C 214.5,150.5 213.5,150.5 212.5,150.5C 212.5,149.5 212.5,148.5 212.5,147.5 Z"/></g>
<g><path style="opacity:1" fill="#dddcda" d="M 127.5,142.5 C 133.8,141.681 139.467,143.015 144.5,146.5C 143.5,146.5 142.5,146.5 141.5,146.5C 141.089,149.276 141.922,149.943 144,148.5C 145.388,150.105 146.888,151.605 148.5,153C 148,153.5 147.5,154 147,154.5C 145.355,152.338 143.188,151.005 140.5,150.5C 139.749,149.624 139.249,148.624 139,147.5C 126.781,146.246 114.615,146.246 102.5,147.5C 104.369,146.835 106.369,146.169 108.5,145.5C 107.333,145.167 106.167,144.833 105,144.5C 100.53,145.264 96.0302,145.597 91.5,145.5C 91.5,146.5 91.5,147.5 91.5,148.5C 94.5176,148.296 97.5176,147.963 100.5,147.5C 101.09,148.766 101.59,150.099 102,151.5C 102.483,150.552 102.649,149.552 102.5,148.5C 103.833,148.5 105.167,148.5 106.5,148.5C 106.833,152.5 107.167,152.5 107.5,148.5C 112.844,148.334 118.177,148.501 123.5,149C 123.957,149.414 124.291,149.914 124.5,150.5C 122.604,151.466 120.604,151.799 118.5,151.5C 118.5,152.833 118.5,154.167 118.5,155.5C 118.833,156.833 119.167,156.833 119.5,155.5C 119.5,154.5 119.5,153.5 119.5,152.5C 121.915,152.627 124.249,152.793 126.5,153C 125.663,151.989 125.33,150.822 125.5,149.5C 129.915,149.305 134.249,149.805 138.5,151C 141.005,151.51 142.505,153.01 143,155.5C 144,154.167 145,154.167 146,155.5C 146.783,157.433 146.283,158.933 144.5,160C 146.837,161.798 147.503,163.965 146.5,166.5C 144.676,164.511 142.676,162.677 140.5,161C 138.854,159.599 137.187,159.432 135.5,160.5C 142.375,164.373 147.042,170.039 149.5,177.5C 151.464,171.744 154.797,166.91 159.5,163C 165.093,160.551 170.426,158.051 175.5,155.5C 183.167,154.167 190.833,154.167 198.5,155.5C 198.821,161.026 198.488,166.36 197.5,171.5C 183.231,171.469 171.231,176.636 161.5,187C 153.5,187.667 145.5,187.667 137.5,187C 121.778,172.315 103.445,167.981 82.5,174C 73.3744,176.597 64.3744,179.597 55.5,183C 47.0341,185.689 38.3675,187.189 29.5,187.5C 29.5,187.167 29.5,186.833 29.5,186.5C 37.1894,181.143 43.5227,174.477 48.5,166.5C 63.1654,159.104 77.832,151.604 92.5,144C 104.119,142.639 115.786,142.139 127.5,142.5 Z"/></g>
<g><path style="opacity:1" fill="#b7b6b6" d="M 102.5,147.5 C 101.833,147.5 101.167,147.5 100.5,147.5C 97.5176,147.963 94.5176,148.296 91.5,148.5C 91.5,147.5 91.5,146.5 91.5,145.5C 96.0302,145.597 100.53,145.264 105,144.5C 106.167,144.833 107.333,145.167 108.5,145.5C 106.369,146.169 104.369,146.835 102.5,147.5 Z"/></g>
<g><path style="opacity:1" fill="#77a2c5" d="M 197.5,171.5 C 196.167,192.834 194.833,214.167 193.5,235.5C 191.12,238.881 188.12,241.547 184.5,243.5C 184.832,231.149 184.499,218.815 183.5,206.5C 182.893,206.624 182.56,206.957 182.5,207.5C 181.5,207.833 180.833,208.5 180.5,209.5C 176.896,212.602 173.396,215.935 170,219.5C 169.828,215.129 169.328,210.796 168.5,206.5C 163.833,210.833 159.167,215.167 154.5,219.5C 153.672,215.204 153.172,210.871 153,206.5C 147.926,210.952 142.759,215.286 137.5,219.5C 136.672,215.204 136.172,210.871 136,206.5C 131,210.833 126,215.167 121,219.5C 120.828,215.129 120.328,210.796 119.5,206.5C 114.761,210.95 109.928,215.284 105,219.5C 104.5,226.492 104.334,233.492 104.5,240.5C 99.9648,241.744 95.2981,241.744 90.5,240.5C 80.0502,238.697 72.0502,233.363 66.5,224.5C 66.5,222.5 66.5,220.5 66.5,218.5C 65.5,218.5 64.5,218.5 63.5,218.5C 63.0523,215.828 61.719,213.828 59.5,212.5C 59.7373,211.209 59.404,210.209 58.5,209.5C 58.0113,208.005 57.3446,206.671 56.5,205.5C 54.2957,201.754 52.629,197.754 51.5,193.5C 48.674,198.874 48.0073,198.54 49.5,192.5C 49.523,190.933 49.023,189.6 48,188.5C 46.7957,190.823 45.9624,193.323 45.5,196C 46.8333,197.667 46.8333,199.333 45.5,201C 46.0223,201.95 46.689,202.784 47.5,203.5C 47.3155,207.069 48.6489,210.236 51.5,213C 50.5494,213.718 50.3828,214.551 51,215.5C 53.1011,217.937 54.9344,220.604 56.5,223.5C 59.5446,225.618 62.878,227.118 66.5,228C 72.18,235.333 79.5133,239.833 88.5,241.5C 93.6405,242.488 98.9738,242.821 104.5,242.5C 104.5,250.5 104.5,258.5 104.5,266.5C 67.5823,251.58 42.5823,225.247 29.5,187.5C 38.3675,187.189 47.0341,185.689 55.5,183C 64.3744,179.597 73.3744,176.597 82.5,174C 103.445,167.981 121.778,172.315 137.5,187C 145.5,187.667 153.5,187.667 161.5,187C 171.231,176.636 183.231,171.469 197.5,171.5 Z"/></g>
<g><path style="opacity:1" fill="#6f9aab" d="M 95.5,187.5 C 93.537,186.832 91.537,186.498 89.5,186.5C 88.0815,187.005 87.4148,188.005 87.5,189.5C 86.5,189.5 85.5,189.5 84.5,189.5C 87.3984,186.372 90.7317,183.706 94.5,181.5C 95.086,181.709 95.586,182.043 96,182.5C 98.5017,177.683 101.002,176.85 103.5,180C 100.833,180.667 100.833,181.333 103.5,182C 100.379,183.306 97.7126,185.14 95.5,187.5 Z"/></g>
<g><path style="opacity:1" fill="#769fc0" d="M 213.5,174.5 C 217.863,175.116 222.197,175.95 226.5,177C 240.12,183.259 254.453,186.759 269.5,187.5C 267.606,192.515 265.939,197.515 264.5,202.5C 264.5,201.5 264.5,200.5 264.5,199.5C 260.851,198.26 257.351,196.593 254,194.5C 251.8,195.867 250.3,197.867 249.5,200.5C 252.109,203.144 255.109,205.311 258.5,207C 259.928,207.579 261.262,207.412 262.5,206.5C 261.878,208.122 260.878,209.455 259.5,210.5C 255.108,207.461 250.441,204.795 245.5,202.5C 244.702,202.043 244.369,201.376 244.5,200.5C 246.415,197 248.082,193.333 249.5,189.5C 246.992,184.829 243.159,183.163 238,184.5C 235.742,189.353 233.242,194.019 230.5,198.5C 227.813,198.336 225.146,198.503 222.5,199C 219.117,200.686 216.117,202.853 213.5,205.5C 213.5,203.167 213.5,200.833 213.5,198.5C 213.5,190.5 213.5,182.5 213.5,174.5 Z"/></g>
<g><path style="opacity:1" fill="#ad6b3b" d="M 244.5,200.5 C 243.85,200.804 243.183,201.137 242.5,201.5C 238.693,199.674 234.693,198.674 230.5,198.5C 233.242,194.019 235.742,189.353 238,184.5C 243.159,183.163 246.992,184.829 249.5,189.5C 248.082,193.333 246.415,197 244.5,200.5 Z"/></g>
<g><path style="opacity:1" fill="#ab6b3c" d="M 220.5,177.5 C 225.106,178.553 229.273,180.553 233,183.5C 232.921,185.846 232.088,188.013 230.5,190C 225.873,189.442 221.706,187.608 218,184.5C 218.237,182.011 219.071,179.678 220.5,177.5 Z"/></g>
<g><path style="opacity:1" fill="#e5c755" d="M 95.5,187.5 C 93.0115,188.688 90.6782,190.021 88.5,191.5C 86.3023,191.591 85.9689,190.925 87.5,189.5C 87.4148,188.005 88.0815,187.005 89.5,186.5C 91.537,186.498 93.537,186.832 95.5,187.5 Z"/></g>
<g><path style="opacity:1" fill="#b16a3b" d="M 203.5,130.5 C 204.833,130.5 206.167,130.5 207.5,130.5C 208.209,131.404 209.209,131.737 210.5,131.5C 211.167,136.833 211.833,142.167 212.5,147.5C 212.5,148.5 212.5,149.5 212.5,150.5C 212.17,166.675 212.504,182.675 213.5,198.5C 213.5,200.833 213.5,203.167 213.5,205.5C 213.5,206.167 213.5,206.833 213.5,207.5C 207.324,217.185 200.657,226.519 193.5,235.5C 194.833,214.167 196.167,192.834 197.5,171.5C 198.488,166.36 198.821,161.026 198.5,155.5C 198.724,151.821 199.058,148.154 199.5,144.5C 199.5,143.833 199.5,143.167 199.5,142.5C 199.858,138.491 200.358,134.491 201,130.5C 201.977,131.774 202.811,131.774 203.5,130.5 Z"/></g>
<g><path style="opacity:1" fill="#b9b573" d="M 84.5,189.5 C 85.5,189.5 86.5,189.5 87.5,189.5C 85.9689,190.925 86.3023,191.591 88.5,191.5C 87.7848,193.56 86.4514,195.226 84.5,196.5C 83.9432,194.668 82.9432,193.335 81.5,192.5C 82.6935,191.728 83.6935,190.728 84.5,189.5 Z"/></g>
<g><path style="opacity:1" fill="#ad6a3c" d="M 264.5,202.5 C 263.326,203.514 262.66,204.847 262.5,206.5C 261.262,207.412 259.928,207.579 258.5,207C 255.109,205.311 252.109,203.144 249.5,200.5C 250.3,197.867 251.8,195.867 254,194.5C 257.351,196.593 260.851,198.26 264.5,199.5C 264.5,200.5 264.5,201.5 264.5,202.5 Z"/></g>
<g><path style="opacity:1" fill="#ddc458" d="M 82.5,203.5 C 81.5768,204.303 80.5768,204.47 79.5,204C 79.7884,201.762 81.1217,199.929 83.5,198.5C 82.132,197.406 80.9653,197.74 80,199.5C 79.51,198.207 79.3433,196.873 79.5,195.5C 80.5511,194.778 81.2178,193.778 81.5,192.5C 82.9432,193.335 83.9432,194.668 84.5,196.5C 86.4514,195.226 87.7848,193.56 88.5,191.5C 90.1368,190.782 91.8034,190.616 93.5,191C 89.5772,195.08 85.9105,199.247 82.5,203.5 Z"/></g>
<g><path style="opacity:1" fill="#4b7653" d="M 230.5,198.5 C 234.693,198.674 238.693,199.674 242.5,201.5C 243.183,201.137 243.85,200.804 244.5,200.5C 244.369,201.376 244.702,202.043 245.5,202.5C 250.441,204.795 255.108,207.461 259.5,210.5C 259.5,210.833 259.5,211.167 259.5,211.5C 253.985,208.577 248.318,205.91 242.5,203.5C 238.51,201.413 234.177,200.08 229.5,199.5C 223.092,200.037 217.759,202.704 213.5,207.5C 213.5,206.833 213.5,206.167 213.5,205.5C 216.117,202.853 219.117,200.686 222.5,199C 225.146,198.503 227.813,198.336 230.5,198.5 Z"/></g>
<g><path style="opacity:1" fill="#afb17d" d="M 79.5,195.5 C 79.3433,196.873 79.51,198.207 80,199.5C 80.9653,197.74 82.132,197.406 83.5,198.5C 81.1217,199.929 79.7884,201.762 79.5,204C 80.5768,204.47 81.5768,204.303 82.5,203.5C 81.8621,205.799 80.8621,207.966 79.5,210C 80.8825,211.461 80.5492,212.294 78.5,212.5C 77.3915,211.71 76.0581,211.21 74.5,211C 75.6051,207.759 76.9384,204.592 78.5,201.5C 78.2528,200.287 77.5862,199.62 76.5,199.5C 77.6588,198.26 78.6588,196.926 79.5,195.5 Z"/></g>
<g><path style="opacity:1" fill="#75a1c5" d="M 229.5,199.5 C 228.391,201.554 227.391,203.721 226.5,206C 228.59,211.302 232.257,213.135 237.5,211.5C 239.192,208.769 240.858,206.102 242.5,203.5C 248.318,205.91 253.985,208.577 259.5,211.5C 248.812,230.855 233.812,245.855 214.5,256.5C 214.55,240.823 214.217,225.156 213.5,209.5C 213.5,208.833 213.5,208.167 213.5,207.5C 217.759,202.704 223.092,200.037 229.5,199.5 Z"/></g>
<g><path style="opacity:1" fill="#a76c3d" d="M 229.5,199.5 C 234.177,200.08 238.51,201.413 242.5,203.5C 240.858,206.102 239.192,208.769 237.5,211.5C 232.257,213.135 228.59,211.302 226.5,206C 227.391,203.721 228.391,201.554 229.5,199.5 Z"/></g>
<g><path style="opacity:1" fill="#ae866d" d="M 182.5,207.5 C 183.495,219.655 183.829,231.989 183.5,244.5C 183.5,245.167 183.167,245.5 182.5,245.5C 183.146,233.12 182.479,221.12 180.5,209.5C 180.833,208.5 181.5,207.833 182.5,207.5 Z"/></g>
<g><path style="opacity:1" fill="#bab3b2" d="M 182.5,207.5 C 182.56,206.957 182.893,206.624 183.5,206.5C 184.499,218.815 184.832,231.149 184.5,243.5C 184.5,244.167 184.167,244.5 183.5,244.5C 183.829,231.989 183.495,219.655 182.5,207.5 Z"/></g>
<g><path style="opacity:1" fill="#b16a3a" d="M 180.5,209.5 C 182.479,221.12 183.146,233.12 182.5,245.5C 172.222,255.054 160.055,260.72 146,262.5C 134.464,262.145 129.464,256.145 131,244.5C 133.61,240.112 137.443,238.278 142.5,239C 134.788,242.639 133.455,247.973 138.5,255C 153.053,260.817 160.553,255.984 161,240.5C 159.5,235 156,231.5 150.5,230C 145.833,229.333 141.167,229.333 136.5,230C 128.76,233.868 120.76,237.201 112.5,240C 109.854,240.497 107.187,240.664 104.5,240.5C 104.334,233.492 104.5,226.492 105,219.5C 109.928,215.284 114.761,210.95 119.5,206.5C 120.328,210.796 120.828,215.129 121,219.5C 126,215.167 131,210.833 136,206.5C 136.172,210.871 136.672,215.204 137.5,219.5C 142.759,215.286 147.926,210.952 153,206.5C 153.172,210.871 153.672,215.204 154.5,219.5C 159.167,215.167 163.833,210.833 168.5,206.5C 169.328,210.796 169.828,215.129 170,219.5C 173.396,215.935 176.896,212.602 180.5,209.5 Z"/></g>
<g><path style="opacity:1" fill="#46795a" d="M 223.5,209.5 C 225.296,210.793 226.963,212.293 228.5,214C 230.608,214.36 232.608,215.027 234.5,216C 228.999,216.917 225.333,214.75 223.5,209.5 Z"/></g>
<g><path style="opacity:1" fill="#9caa91" d="M 56.5,205.5 C 57.3446,206.671 58.0113,208.005 58.5,209.5C 57.661,210.641 56.9943,211.974 56.5,213.5C 55.675,214.386 54.675,214.719 53.5,214.5C 52.8048,211.433 51.8048,208.433 50.5,205.5C 50.8076,204.692 51.3076,204.025 52,203.5C 52.8888,206.279 54.0555,208.945 55.5,211.5C 56.4656,209.604 56.7989,207.604 56.5,205.5 Z"/></g>
<g><path style="opacity:1" fill="#e5c855" d="M 76.5,199.5 C 77.5862,199.62 78.2528,200.287 78.5,201.5C 76.9384,204.592 75.6051,207.759 74.5,211C 76.0581,211.21 77.3915,211.71 78.5,212.5C 76.2475,212.916 74.7475,214.249 74,216.5C 73.502,219.482 73.3354,222.482 73.5,225.5C 73.5,226.167 73.1667,226.5 72.5,226.5C 72.7633,220.95 72.4299,215.45 71.5,210C 73.0532,206.395 74.7199,202.895 76.5,199.5 Z"/></g>
<g><path style="opacity:1" fill="#487b5e" d="M 220.5,211.5 C 224.413,215.96 229.413,218.627 235.5,219.5C 231.526,220.541 227.859,219.707 224.5,217C 222.536,215.549 221.203,213.716 220.5,211.5 Z"/></g>
<g><path style="opacity:1" fill="#ddc45b" d="M 56.5,205.5 C 56.7989,207.604 56.4656,209.604 55.5,211.5C 54.0555,208.945 52.8888,206.279 52,203.5C 51.3076,204.025 50.8076,204.692 50.5,205.5C 51.8048,208.433 52.8048,211.433 53.5,214.5C 54.675,214.719 55.675,214.386 56.5,213.5C 56.9943,211.974 57.661,210.641 58.5,209.5C 58.9577,212.394 58.291,214.894 56.5,217C 58.393,219.303 60.393,221.47 62.5,223.5C 63.9705,222.619 64.8038,221.286 65,219.5C 65.1981,221.382 65.6981,223.048 66.5,224.5C 72.0502,233.363 80.0502,238.697 90.5,240.5C 90.1583,241.338 89.4916,241.672 88.5,241.5C 79.5133,239.833 72.18,235.333 66.5,228C 62.878,227.118 59.5446,225.618 56.5,223.5C 54.9344,220.604 53.1011,217.937 51,215.5C 50.3828,214.551 50.5494,213.718 51.5,213C 48.6489,210.236 47.3155,207.069 47.5,203.5C 46.689,202.784 46.0223,201.95 45.5,201C 46.8333,199.333 46.8333,197.667 45.5,196C 45.9624,193.323 46.7957,190.823 48,188.5C 49.023,189.6 49.523,190.933 49.5,192.5C 48.0073,198.54 48.674,198.874 51.5,193.5C 52.629,197.754 54.2957,201.754 56.5,205.5 Z"/></g>
<g><path style="opacity:1" fill="#d8c25b" d="M 59.5,212.5 C 61.719,213.828 63.0523,215.828 63.5,218.5C 63.719,219.675 63.3857,220.675 62.5,221.5C 60.2971,218.891 59.2971,215.891 59.5,212.5 Z"/></g>
<g><path style="opacity:1" fill="#91a79d" d="M 58.5,209.5 C 59.404,210.209 59.7373,211.209 59.5,212.5C 59.2971,215.891 60.2971,218.891 62.5,221.5C 63.3857,220.675 63.719,219.675 63.5,218.5C 64.5,218.5 65.5,218.5 66.5,218.5C 66.5,220.5 66.5,222.5 66.5,224.5C 65.6981,223.048 65.1981,221.382 65,219.5C 64.8038,221.286 63.9705,222.619 62.5,223.5C 60.393,221.47 58.393,219.303 56.5,217C 58.291,214.894 58.9577,212.394 58.5,209.5 Z"/></g>
<g><path style="opacity:1" fill="#497b5f" d="M 217.5,214.5 C 222.329,219.581 228.329,222.581 235.5,223.5C 227.384,224.686 221.384,221.686 217.5,214.5 Z"/></g>
<g><path style="opacity:1" fill="#b2b378" d="M 73.5,225.5 C 75.035,227.939 75.8683,230.606 76,233.5C 74.295,231.423 73.1283,229.09 72.5,226.5C 73.1667,226.5 73.5,226.167 73.5,225.5 Z"/></g>
<g><path style="opacity:1" fill="#b06a3c" d="M 213.5,209.5 C 214.217,225.156 214.55,240.823 214.5,256.5C 207.842,261.29 200.509,264.957 192.5,267.5C 191.646,258.334 191.646,249.001 192.5,239.5C 195.498,236.333 198.331,233 201,229.5C 204.941,222.601 209.108,215.934 213.5,209.5 Z"/></g>
<g><path style="opacity:1" fill="#b06b3b" d="M 183.5,247.5 C 183.5,255.167 183.5,262.833 183.5,270.5C 156.591,278.202 130.258,276.868 104.5,266.5C 104.5,258.5 104.5,250.5 104.5,242.5C 115.808,241.015 126.475,237.515 136.5,232C 142.281,231.097 147.947,231.43 153.5,233C 161.432,240.258 161.432,247.591 153.5,255C 146.343,257.948 140.843,256.115 137,249.5C 137.199,241.643 141.033,239.143 148.5,242C 149.863,243.945 150.697,246.112 151,248.5C 153.831,243.025 152.331,239.192 146.5,237C 130.421,236.292 125.588,243.459 132,258.5C 135.638,262.826 140.305,264.826 146,264.5C 151.357,264.202 156.524,263.036 161.5,261C 169.247,257.068 176.58,252.568 183.5,247.5 Z"/></g>
<g><path style="opacity:1" fill="#576e3c" d="M 213.5,207.5 C 213.5,208.167 213.5,208.833 213.5,209.5C 209.108,215.934 204.941,222.601 201,229.5C 198.331,233 195.498,236.333 192.5,239.5C 189.271,241.942 186.271,244.608 183.5,247.5C 176.58,252.568 169.247,257.068 161.5,261C 156.524,263.036 151.357,264.202 146,264.5C 140.305,264.826 135.638,262.826 132,258.5C 125.588,243.459 130.421,236.292 146.5,237C 152.331,239.192 153.831,243.025 151,248.5C 150.697,246.112 149.863,243.945 148.5,242C 141.033,239.143 137.199,241.643 137,249.5C 140.843,256.115 146.343,257.948 153.5,255C 161.432,247.591 161.432,240.258 153.5,233C 147.947,231.43 142.281,231.097 136.5,232C 126.475,237.515 115.808,241.015 104.5,242.5C 98.9738,242.821 93.6405,242.488 88.5,241.5C 89.4916,241.672 90.1583,241.338 90.5,240.5C 95.2981,241.744 99.9648,241.744 104.5,240.5C 107.187,240.664 109.854,240.497 112.5,240C 120.76,237.201 128.76,233.868 136.5,230C 141.167,229.333 145.833,229.333 150.5,230C 156,231.5 159.5,235 161,240.5C 160.553,255.984 153.053,260.817 138.5,255C 133.455,247.973 134.788,242.639 142.5,239C 137.443,238.278 133.61,240.112 131,244.5C 129.464,256.145 134.464,262.145 146,262.5C 160.055,260.72 172.222,255.054 182.5,245.5C 183.167,245.5 183.5,245.167 183.5,244.5C 184.167,244.5 184.5,244.167 184.5,243.5C 188.12,241.547 191.12,238.881 193.5,235.5C 200.657,226.519 207.324,217.185 213.5,207.5 Z"/></g>
<g><path style="opacity:1" fill="#7fa1c0" d="M 192.5,239.5 C 191.646,249.001 191.646,258.334 192.5,267.5C 189.659,268.669 186.659,269.669 183.5,270.5C 183.5,262.833 183.5,255.167 183.5,247.5C 186.271,244.608 189.271,241.942 192.5,239.5 Z"/></g>
</svg>
